<svg width="451" height="81" viewBox="0 0 451 81" fill="none" xmlns="http://www.w3.org/2000/svg">
<mask id="path-1-outside-1" maskUnits="userSpaceOnUse" x="0.103317" y="0.559998" width="451" height="81" fill="black">
<rect fill="white" x="0.103317" y="0.559998" width="451" height="81"/>
<path d="M38.0233 8.96V15.656H24.7033V59H16.4953V15.656H3.10332V8.96H38.0233Z"/>
<path d="M89.2479 19.328L64.9119 77.648H56.4159L64.4799 58.352L48.8559 19.328H57.9999L69.1599 49.568L80.7519 19.328H89.2479Z"/>
<path d="M110.85 25.16C112.242 23.336 114.138 21.8 116.538 20.552C118.938 19.304 121.65 18.68 124.674 18.68C128.13 18.68 131.274 19.544 134.106 21.272C136.986 22.952 139.242 25.328 140.874 28.4C142.506 31.472 143.322 35 143.322 38.984C143.322 42.968 142.506 46.544 140.874 49.712C139.242 52.832 136.986 55.28 134.106 57.056C131.274 58.784 128.13 59.648 124.674 59.648C121.65 59.648 118.962 59.048 116.61 57.848C114.258 56.6 112.338 55.064 110.85 53.24V77.864H102.642V19.328H110.85V25.16ZM134.97 38.984C134.97 36.248 134.394 33.896 133.242 31.928C132.138 29.912 130.65 28.4 128.778 27.392C126.954 26.336 124.986 25.808 122.874 25.808C120.81 25.808 118.842 26.336 116.97 27.392C115.146 28.448 113.658 29.984 112.506 32C111.402 34.016 110.85 36.392 110.85 39.128C110.85 41.864 111.402 44.264 112.506 46.328C113.658 48.344 115.146 49.88 116.97 50.936C118.842 51.992 120.81 52.52 122.874 52.52C124.986 52.52 126.954 51.992 128.778 50.936C130.65 49.832 132.138 48.248 133.242 46.184C134.394 44.12 134.97 41.72 134.97 38.984Z"/>
<path d="M194.999 38.192C194.999 39.68 194.903 41.024 194.711 42.224H164.399C164.639 45.392 165.815 47.936 167.927 49.856C170.039 51.776 172.631 52.736 175.703 52.736C180.119 52.736 183.239 50.888 185.063 47.192H193.919C192.719 50.84 190.535 53.84 187.367 56.192C184.247 58.496 180.359 59.648 175.703 59.648C171.911 59.648 168.503 58.808 165.479 57.128C162.503 55.4 160.151 53 158.423 49.928C156.743 46.808 155.903 43.208 155.903 39.128C155.903 35.048 156.719 31.472 158.351 28.4C160.031 25.28 162.359 22.88 165.335 21.2C168.359 19.52 171.815 18.68 175.703 18.68C179.447 18.68 182.783 19.496 185.711 21.128C188.639 22.76 190.919 25.064 192.551 28.04C194.183 30.968 194.999 34.352 194.999 38.192ZM186.431 35.6C186.383 32.576 185.303 30.152 183.191 28.328C181.079 26.504 178.463 25.592 175.343 25.592C172.511 25.592 170.087 26.504 168.071 28.328C166.055 30.104 164.855 32.528 164.471 35.6H186.431Z"/>
<path d="M226.765 59.504C223.405 59.504 220.381 58.928 217.693 57.776C215.005 56.576 212.893 54.896 211.357 52.736C209.821 50.576 209.053 48.056 209.053 45.176H217.837C218.029 47.336 218.869 49.112 220.357 50.504C221.893 51.896 224.029 52.592 226.765 52.592C229.597 52.592 231.805 51.92 233.389 50.576C234.973 49.184 235.765 47.408 235.765 45.248C235.765 43.568 235.261 42.2 234.253 41.144C233.293 40.088 232.069 39.272 230.581 38.696C229.141 38.12 227.125 37.496 224.533 36.824C221.269 35.96 218.605 35.096 216.541 34.232C214.525 33.32 212.797 31.928 211.357 30.056C209.917 28.184 209.197 25.688 209.197 22.568C209.197 19.688 209.917 17.168 211.357 15.008C212.797 12.848 214.813 11.192 217.405 10.04C219.997 8.888 222.997 8.312 226.405 8.312C231.253 8.312 235.213 9.536 238.285 11.984C241.405 14.384 243.133 17.696 243.469 21.92H234.397C234.253 20.096 233.389 18.536 231.805 17.24C230.221 15.944 228.133 15.296 225.541 15.296C223.189 15.296 221.269 15.896 219.781 17.096C218.293 18.296 217.549 20.024 217.549 22.28C217.549 23.816 218.005 25.088 218.917 26.096C219.877 27.056 221.077 27.824 222.517 28.4C223.957 28.976 225.925 29.6 228.421 30.272C231.733 31.184 234.421 32.096 236.485 33.008C238.597 33.92 240.373 35.336 241.813 37.256C243.301 39.128 244.045 41.648 244.045 44.816C244.045 47.36 243.349 49.76 241.957 52.016C240.613 54.272 238.621 56.096 235.981 57.488C233.389 58.832 230.317 59.504 226.765 59.504Z"/>
<path d="M258.194 39.128C258.194 35.048 259.01 31.472 260.642 28.4C262.322 25.28 264.626 22.88 267.554 21.2C270.482 19.52 273.842 18.68 277.634 18.68C282.434 18.68 286.394 19.832 289.514 22.136C292.682 24.392 294.818 27.632 295.922 31.856H287.066C286.346 29.888 285.194 28.352 283.61 27.248C282.026 26.144 280.034 25.592 277.634 25.592C274.274 25.592 271.586 26.792 269.57 29.192C267.602 31.544 266.618 34.856 266.618 39.128C266.618 43.4 267.602 46.736 269.57 49.136C271.586 51.536 274.274 52.736 277.634 52.736C282.386 52.736 285.53 50.648 287.066 46.472H295.922C294.77 50.504 292.61 53.72 289.442 56.12C286.274 58.472 282.338 59.648 277.634 59.648C273.842 59.648 270.482 58.808 267.554 57.128C264.626 55.4 262.322 53 260.642 49.928C259.01 46.808 258.194 43.208 258.194 39.128Z"/>
<path d="M319.51 25.088C320.71 23.072 322.294 21.512 324.262 20.408C326.278 19.256 328.654 18.68 331.39 18.68V27.176H329.302C326.086 27.176 323.638 27.992 321.958 29.624C320.326 31.256 319.51 34.088 319.51 38.12V59H311.302V19.328H319.51V25.088Z"/>
<path d="M350.31 14.072C348.822 14.072 347.574 13.568 346.566 12.56C345.558 11.552 345.054 10.304 345.054 8.816C345.054 7.328 345.558 6.08 346.566 5.072C347.574 4.064 348.822 3.56 350.31 3.56C351.75 3.56 352.974 4.064 353.982 5.072C354.99 6.08 355.494 7.328 355.494 8.816C355.494 10.304 354.99 11.552 353.982 12.56C352.974 13.568 351.75 14.072 350.31 14.072ZM354.342 19.328V59H346.134V19.328H354.342Z"/>
<path d="M380.527 25.16C381.919 23.336 383.815 21.8 386.215 20.552C388.615 19.304 391.327 18.68 394.351 18.68C397.807 18.68 400.951 19.544 403.783 21.272C406.663 22.952 408.919 25.328 410.551 28.4C412.183 31.472 412.999 35 412.999 38.984C412.999 42.968 412.183 46.544 410.551 49.712C408.919 52.832 406.663 55.28 403.783 57.056C400.951 58.784 397.807 59.648 394.351 59.648C391.327 59.648 388.639 59.048 386.287 57.848C383.935 56.6 382.015 55.064 380.527 53.24V77.864H372.319V19.328H380.527V25.16ZM404.647 38.984C404.647 36.248 404.071 33.896 402.919 31.928C401.815 29.912 400.327 28.4 398.455 27.392C396.631 26.336 394.663 25.808 392.551 25.808C390.487 25.808 388.519 26.336 386.647 27.392C384.823 28.448 383.335 29.984 382.183 32C381.079 34.016 380.527 36.392 380.527 39.128C380.527 41.864 381.079 44.264 382.183 46.328C383.335 48.344 384.823 49.88 386.647 50.936C388.519 51.992 390.487 52.52 392.551 52.52C394.663 52.52 396.631 51.992 398.455 50.936C400.327 49.832 401.815 48.248 402.919 46.184C404.071 44.12 404.647 41.72 404.647 38.984Z"/>
<path d="M437.892 26.024V47.984C437.892 49.472 438.228 50.552 438.9 51.224C439.62 51.848 440.82 52.16 442.5 52.16H447.54V59H441.06C437.364 59 434.532 58.136 432.564 56.408C430.596 54.68 429.612 51.872 429.612 47.984V26.024H424.932V19.328H429.612V9.464H437.892V19.328H447.54V26.024H437.892Z"/>
</mask>
<path d="M38.0233 8.96V15.656H24.7033V59H16.4953V15.656H3.10332V8.96H38.0233Z" stroke="white" stroke-width="6" mask="url(#path-1-outside-1)"/>
<path d="M89.2479 19.328L64.9119 77.648H56.4159L64.4799 58.352L48.8559 19.328H57.9999L69.1599 49.568L80.7519 19.328H89.2479Z" stroke="white" stroke-width="6" mask="url(#path-1-outside-1)"/>
<path d="M110.85 25.16C112.242 23.336 114.138 21.8 116.538 20.552C118.938 19.304 121.65 18.68 124.674 18.68C128.13 18.68 131.274 19.544 134.106 21.272C136.986 22.952 139.242 25.328 140.874 28.4C142.506 31.472 143.322 35 143.322 38.984C143.322 42.968 142.506 46.544 140.874 49.712C139.242 52.832 136.986 55.28 134.106 57.056C131.274 58.784 128.13 59.648 124.674 59.648C121.65 59.648 118.962 59.048 116.61 57.848C114.258 56.6 112.338 55.064 110.85 53.24V77.864H102.642V19.328H110.85V25.16ZM134.97 38.984C134.97 36.248 134.394 33.896 133.242 31.928C132.138 29.912 130.65 28.4 128.778 27.392C126.954 26.336 124.986 25.808 122.874 25.808C120.81 25.808 118.842 26.336 116.97 27.392C115.146 28.448 113.658 29.984 112.506 32C111.402 34.016 110.85 36.392 110.85 39.128C110.85 41.864 111.402 44.264 112.506 46.328C113.658 48.344 115.146 49.88 116.97 50.936C118.842 51.992 120.81 52.52 122.874 52.52C124.986 52.52 126.954 51.992 128.778 50.936C130.65 49.832 132.138 48.248 133.242 46.184C134.394 44.12 134.97 41.72 134.97 38.984Z" stroke="white" stroke-width="6" mask="url(#path-1-outside-1)"/>
<path d="M194.999 38.192C194.999 39.68 194.903 41.024 194.711 42.224H164.399C164.639 45.392 165.815 47.936 167.927 49.856C170.039 51.776 172.631 52.736 175.703 52.736C180.119 52.736 183.239 50.888 185.063 47.192H193.919C192.719 50.84 190.535 53.84 187.367 56.192C184.247 58.496 180.359 59.648 175.703 59.648C171.911 59.648 168.503 58.808 165.479 57.128C162.503 55.4 160.151 53 158.423 49.928C156.743 46.808 155.903 43.208 155.903 39.128C155.903 35.048 156.719 31.472 158.351 28.4C160.031 25.28 162.359 22.88 165.335 21.2C168.359 19.52 171.815 18.68 175.703 18.68C179.447 18.68 182.783 19.496 185.711 21.128C188.639 22.76 190.919 25.064 192.551 28.04C194.183 30.968 194.999 34.352 194.999 38.192ZM186.431 35.6C186.383 32.576 185.303 30.152 183.191 28.328C181.079 26.504 178.463 25.592 175.343 25.592C172.511 25.592 170.087 26.504 168.071 28.328C166.055 30.104 164.855 32.528 164.471 35.6H186.431Z" stroke="white" stroke-width="6" mask="url(#path-1-outside-1)"/>
<path d="M226.765 59.504C223.405 59.504 220.381 58.928 217.693 57.776C215.005 56.576 212.893 54.896 211.357 52.736C209.821 50.576 209.053 48.056 209.053 45.176H217.837C218.029 47.336 218.869 49.112 220.357 50.504C221.893 51.896 224.029 52.592 226.765 52.592C229.597 52.592 231.805 51.92 233.389 50.576C234.973 49.184 235.765 47.408 235.765 45.248C235.765 43.568 235.261 42.2 234.253 41.144C233.293 40.088 232.069 39.272 230.581 38.696C229.141 38.12 227.125 37.496 224.533 36.824C221.269 35.96 218.605 35.096 216.541 34.232C214.525 33.32 212.797 31.928 211.357 30.056C209.917 28.184 209.197 25.688 209.197 22.568C209.197 19.688 209.917 17.168 211.357 15.008C212.797 12.848 214.813 11.192 217.405 10.04C219.997 8.888 222.997 8.312 226.405 8.312C231.253 8.312 235.213 9.536 238.285 11.984C241.405 14.384 243.133 17.696 243.469 21.92H234.397C234.253 20.096 233.389 18.536 231.805 17.24C230.221 15.944 228.133 15.296 225.541 15.296C223.189 15.296 221.269 15.896 219.781 17.096C218.293 18.296 217.549 20.024 217.549 22.28C217.549 23.816 218.005 25.088 218.917 26.096C219.877 27.056 221.077 27.824 222.517 28.4C223.957 28.976 225.925 29.6 228.421 30.272C231.733 31.184 234.421 32.096 236.485 33.008C238.597 33.92 240.373 35.336 241.813 37.256C243.301 39.128 244.045 41.648 244.045 44.816C244.045 47.36 243.349 49.76 241.957 52.016C240.613 54.272 238.621 56.096 235.981 57.488C233.389 58.832 230.317 59.504 226.765 59.504Z" stroke="white" stroke-width="6" mask="url(#path-1-outside-1)"/>
<path d="M258.194 39.128C258.194 35.048 259.01 31.472 260.642 28.4C262.322 25.28 264.626 22.88 267.554 21.2C270.482 19.52 273.842 18.68 277.634 18.68C282.434 18.68 286.394 19.832 289.514 22.136C292.682 24.392 294.818 27.632 295.922 31.856H287.066C286.346 29.888 285.194 28.352 283.61 27.248C282.026 26.144 280.034 25.592 277.634 25.592C274.274 25.592 271.586 26.792 269.57 29.192C267.602 31.544 266.618 34.856 266.618 39.128C266.618 43.4 267.602 46.736 269.57 49.136C271.586 51.536 274.274 52.736 277.634 52.736C282.386 52.736 285.53 50.648 287.066 46.472H295.922C294.77 50.504 292.61 53.72 289.442 56.12C286.274 58.472 282.338 59.648 277.634 59.648C273.842 59.648 270.482 58.808 267.554 57.128C264.626 55.4 262.322 53 260.642 49.928C259.01 46.808 258.194 43.208 258.194 39.128Z" stroke="white" stroke-width="6" mask="url(#path-1-outside-1)"/>
<path d="M319.51 25.088C320.71 23.072 322.294 21.512 324.262 20.408C326.278 19.256 328.654 18.68 331.39 18.68V27.176H329.302C326.086 27.176 323.638 27.992 321.958 29.624C320.326 31.256 319.51 34.088 319.51 38.12V59H311.302V19.328H319.51V25.088Z" stroke="white" stroke-width="6" mask="url(#path-1-outside-1)"/>
<path d="M350.31 14.072C348.822 14.072 347.574 13.568 346.566 12.56C345.558 11.552 345.054 10.304 345.054 8.816C345.054 7.328 345.558 6.08 346.566 5.072C347.574 4.064 348.822 3.56 350.31 3.56C351.75 3.56 352.974 4.064 353.982 5.072C354.99 6.08 355.494 7.328 355.494 8.816C355.494 10.304 354.99 11.552 353.982 12.56C352.974 13.568 351.75 14.072 350.31 14.072ZM354.342 19.328V59H346.134V19.328H354.342Z" stroke="white" stroke-width="6" mask="url(#path-1-outside-1)"/>
<path d="M380.527 25.16C381.919 23.336 383.815 21.8 386.215 20.552C388.615 19.304 391.327 18.68 394.351 18.68C397.807 18.68 400.951 19.544 403.783 21.272C406.663 22.952 408.919 25.328 410.551 28.4C412.183 31.472 412.999 35 412.999 38.984C412.999 42.968 412.183 46.544 410.551 49.712C408.919 52.832 406.663 55.28 403.783 57.056C400.951 58.784 397.807 59.648 394.351 59.648C391.327 59.648 388.639 59.048 386.287 57.848C383.935 56.6 382.015 55.064 380.527 53.24V77.864H372.319V19.328H380.527V25.16ZM404.647 38.984C404.647 36.248 404.071 33.896 402.919 31.928C401.815 29.912 400.327 28.4 398.455 27.392C396.631 26.336 394.663 25.808 392.551 25.808C390.487 25.808 388.519 26.336 386.647 27.392C384.823 28.448 383.335 29.984 382.183 32C381.079 34.016 380.527 36.392 380.527 39.128C380.527 41.864 381.079 44.264 382.183 46.328C383.335 48.344 384.823 49.88 386.647 50.936C388.519 51.992 390.487 52.52 392.551 52.52C394.663 52.52 396.631 51.992 398.455 50.936C400.327 49.832 401.815 48.248 402.919 46.184C404.071 44.12 404.647 41.72 404.647 38.984Z" stroke="white" stroke-width="6" mask="url(#path-1-outside-1)"/>
<path d="M437.892 26.024V47.984C437.892 49.472 438.228 50.552 438.9 51.224C439.62 51.848 440.82 52.16 442.5 52.16H447.54V59H441.06C437.364 59 434.532 58.136 432.564 56.408C430.596 54.68 429.612 51.872 429.612 47.984V26.024H424.932V19.328H429.612V9.464H437.892V19.328H447.54V26.024H437.892Z" stroke="white" stroke-width="6" mask="url(#path-1-outside-1)"/>
</svg>
